<svg xmlns="http://www.w3.org/2000/svg" viewBox="0 0 229 229"><defs><style>.cls-1{fill:#e3343a;}.cls-2{fill:#d1fae2;}</style></defs><title>icon_1</title><g id="Layer_2" data-name="Layer 2"><g id="Layer_1-2" data-name="Layer 1"><circle class="cls-1" cx="114.5" cy="114.5" r="114.5"/><path class="cls-2" d="M130.2,160c-7.32,0-14.64-.16-21.95.06-3.81.12-7.46-3.79-7.35-7.38.09-3.1,2.29-6.37,5.3-7.12a14.61,14.61,0,0,1,3.56-.39h40.79c4.43,0,8-1.6,10.09-5.71a10.58,10.58,0,0,0,1.11-4.86c0-13.4.09-26.79,0-40.19,0-6.08-4.09-10.45-10.46-10.51a7.58,7.58,0,0,1-7-9A7.45,7.45,0,0,1,151.8,69c9.52.39,16.75,4.56,21.57,12.79a24.84,24.84,0,0,1,3.11,9.15,40.75,40.75,0,0,1,.34,5.72c0,13,.27,25.92-.1,38.86-.29,9.84-5.11,17.26-14,21.85a24,24,0,0,1-11,2.61c-7.2.05-14.39,0-21.59,0Z"/><path class="cls-2" d="M98.12,69c7.4,0,14.8.09,22.19,0a7.44,7.44,0,0,1,7.57,8.74,7.73,7.73,0,0,1-6.95,6.15c-14.52,0-29,0-43.55,0a9.82,9.82,0,0,0-9.18,5.39,10.22,10.22,0,0,0-1.3,4.87q0,20.22,0,40.43a10.4,10.4,0,0,0,7.51,10.15,22.52,22.52,0,0,0,3.76.62,7,7,0,0,1,6.07,5,7.16,7.16,0,0,1-1.89,7.69c-2.17,2.16-4.82,2.1-7.51,1.8a24.75,24.75,0,0,1-10.79-3.55A25.19,25.19,0,0,1,53.88,144a29.48,29.48,0,0,1-1.78-10.91c0-12.68.06-25.36,0-38a25.55,25.55,0,0,1,7.15-18.52,24.34,24.34,0,0,1,9.68-6.12A25.87,25.87,0,0,1,77.73,69C84.52,69,91.32,69,98.12,69Z"/></g></g></svg>
